<svg xmlns="http://www.w3.org/2000/svg" version="1.0" width="100%" height="100%" viewBox="0 0 577 578" preserveAspectRatio="xMidYMid meet">

  <g transform="translate(0.000000,578.000000) scale(0.100000,-0.100000)" fill="#000000" stroke="none">
    <path d="M1075 5194 c-204 -44 -373 -212 -414 -412 -15 -72 -15 -3708 -1 -3802 12 -72 62 -188 104 -237 l27 -32 97 33 c130 44 262 108 407 195 440 266 815 604 1396 1256 618 694 1004 1069 1301 1263 153 99 319 146 363 101 38 -38 26 -160 -32 -301 -65 -163 -152 -315 -368 -643 -377 -573 -427 -652 -595 -930 -203 -337 -330 -580 -381 -730 -17 -51 -24 -92 -24 -150 0 -70 4 -87 30 -134 17 -30 48 -67 69 -83 83 -60 71 -59 897 -56 745 3 755 3 811 25 169 64 292 195 345 368 17 57 18 144 18 1950 l0 1890 -23 65 c-78 218 -258 360 -458 360 -90 0 -177 -26 -306 -90 -427 -215 -852 -628 -1658 -1609 -505 -616 -681 -818 -812 -931 -123 -107 -219 -142 -255 -94 -52 69 79 431 291 804 120 210 231 387 481 765 374 566 490 764 535 914 29 94 22 133 -34 186 -75 73 -30 69 -931 72 -691 1 -820 -1 -880 -13z"/>
  </g>
</svg>
