<svg xmlns="http://www.w3.org/2000/svg" version="1.1" width="auto" height="auto">
<path d="M0 0 C2.99655761 -0.00670599 5.99308683 -0.0168191 8.98963165 -0.02777863 C13.7820066 -0.04454369 18.57428504 -0.05049504 23.36668777 -0.04854393 C25.15268544 -0.04929803 26.93868534 -0.05338209 28.7246666 -0.06107521 C57.18785043 -0.17460034 57.18785043 -0.17460034 64.51129913 6.87218475 C67.91016341 10.91130021 69.21617639 13.55715935 69.02277374 19.02379608 C68.55016372 22.80938948 67.25764033 26.16742654 65.81598663 29.6807785 C65.34563995 30.85253632 65.34563995 30.85253632 64.86579132 32.047966 C61.50625371 40.16602755 57.28594192 47.67115661 52.75348663 55.1807785 C52.07914581 56.31144745 52.07914581 56.31144745 51.39118195 57.46495819 C46.61548847 65.46631038 41.78759633 73.37319686 36.31598663 80.922966 C33.9988916 84.27116833 32.00784993 87.79629591 30.01520538 91.344841 C29.5988382 91.95070038 29.18247101 92.55655975 28.75348663 93.1807785 C28.09348663 93.1807785 27.43348663 93.1807785 26.75348663 93.1807785 C26.56786163 93.9645285 26.38223663 94.7482785 26.19098663 95.5557785 C24.1602291 100.67681924 20.99113626 104.75204232 17.75348663 109.1807785 C13.13929213 115.59284609 8.8880167 122.14231857 4.78864288 128.89562225 C2.84938427 132.0259802 0.82478283 135.07416217 -1.24651337 138.1182785 C-4.57861693 143.0542433 -7.54799905 148.11928267 -10.45085907 153.3123703 C-12.13816636 156.31114315 -13.86404833 159.18160619 -15.93401337 161.9307785 C-18.318017 165.2812701 -20.02058055 168.62394972 -21.79729462 172.31749725 C-23.48128577 175.64462803 -25.35819839 178.84266104 -27.24651337 182.0557785 C-30.83847089 188.22783928 -33.64329067 194.52711778 -36.24651337 201.1807785 C-37.11744537 203.26581573 -37.99243504 205.34916277 -38.87151337 207.4307785 C-39.66433376 209.34696823 -40.45611663 211.26358779 -41.24651337 213.1807785 C-41.69704071 214.24232147 -41.69704071 214.24232147 -42.15666962 215.32530975 C-45.27891737 223.02894616 -47.06958993 230.97693398 -45.24651337 239.1807785 C-40.22532811 239.56241852 -37.46670408 238.58499714 -33.18401337 235.9932785 C-32.1824118 235.40159882 -31.18081024 234.80991913 -30.14885712 234.20030975 C-27.12220393 232.09428055 -24.7888536 229.84770509 -22.24651337 227.1807785 C-21.17181688 226.12259766 -20.09345473 225.06813132 -19.01213837 224.016716 C-12.76162943 217.88028681 -6.83340767 211.71711684 -1.39495087 204.83312225 C0.9264264 201.9672765 3.37621861 199.26469028 5.87848663 196.5557785 C9.42239754 192.70157125 12.70257604 188.76603954 15.86676788 184.59874725 C18.12567945 181.70378605 20.49468214 178.91013299 22.87848663 176.1182785 C31.32446311 166.20573205 39.51148233 156.08726197 47.50348663 145.8057785 C51.33999263 140.87646625 55.35747091 136.19314517 59.58551788 131.59093475 C62.61318528 128.22504145 65.43765986 124.70733729 68.28473663 121.188591 C71.65529435 117.08205708 75.11909761 113.05872732 78.59259796 109.03917694 C79.07494904 108.48004608 79.55730011 107.92091522 80.05426788 107.344841 C80.51526886 106.81149139 80.97626984 106.27814178 81.45124054 105.72863007 C82.67252712 104.2770071 83.83092547 102.77312636 84.98395538 101.266716 C85.5679007 100.57835663 86.15184601 99.88999725 86.75348663 99.1807785 C87.41348663 99.1807785 88.07348663 99.1807785 88.75348663 99.1807785 C89.09379913 98.097966 89.09379913 98.097966 89.44098663 96.9932785 C91.04072515 93.56526739 93.01219603 91.80288256 95.75348663 89.1807785 C97.75517251 86.96028486 99.72463021 84.71382376 101.69098663 82.4620285 C103.96581346 79.94593216 106.34068074 77.56486052 108.75348663 75.1807785 C109.73331692 74.2022759 110.7124589 73.22308369 111.69098663 72.2432785 C125.75348663 58.1807785 125.75348663 58.1807785 128.24567413 55.6964035 C129.9279978 54.00883895 131.59980595 52.31073061 133.26129913 50.6026535 C139.41960187 44.31566981 145.82675205 38.62937814 152.75348663 33.1807785 C153.58879913 32.50530975 154.42411163 31.829841 155.28473663 31.1339035 C174.43480576 15.98353236 197.55292304 0.19364978 222.90192413 2.38780975 C234.18036201 4.70984108 243.97319972 12.3517972 250.50348663 21.6807785 C250.91598663 22.5057785 251.32848663 23.3307785 251.75348663 24.1807785 C252.07961945 24.76343475 252.40575226 25.346091 252.74176788 25.9464035 C257.72523995 35.15223554 258.04585684 44.20449399 258.01418304 54.47588348 C258.01720791 55.81082346 258.02109907 57.1457617 258.02577561 58.48069692 C258.03602146 62.12940489 258.03388253 65.77801422 258.02959502 69.42673016 C258.02712153 73.36960842 258.03614975 77.31246332 258.04363251 81.25533295 C258.05636488 88.9728172 258.05817497 96.69026664 258.05583224 104.40775964 C258.05404705 110.68365806 258.05580304 116.95954595 258.06005669 123.23544312 C258.06065188 124.12968735 258.06124706 125.02393158 258.06186029 125.94527413 C258.06307208 127.76213382 258.06428622 129.57899351 258.06550267 131.39585319 C258.07637287 148.42518849 258.07421835 165.45450397 258.06811782 182.48384038 C258.06295085 198.04590657 258.07419923 213.60791012 258.09321604 229.16996393 C258.1126122 245.16564308 258.12084721 261.16129263 258.11709279 277.15698361 C258.11518322 286.13064208 258.11764432 295.10424727 258.13180733 304.07789612 C258.14374487 311.7185896 258.14509957 319.35919701 258.13301716 326.99989173 C258.12714469 330.89418316 258.12598349 334.78831733 258.13801956 338.68259811 C258.14893368 342.25556934 258.14571013 345.82825308 258.13175788 349.40121117 C258.12789022 351.28901039 258.13861283 353.17682266 258.15005475 355.06459117 C258.05691124 369.91464635 254.70224193 383.2266987 244.19098663 394.1807785 C235.43314398 402.16700506 224.19990124 407.28361679 212.27074432 407.3212204 C211.18159225 407.32693054 210.09244019 407.33264069 208.97028351 407.33852386 C207.78523224 407.33964172 206.60018097 407.34075958 205.37921906 407.34191132 C203.49545311 407.34935867 203.49545311 407.34935867 201.57363129 407.35695648 C198.13548384 407.37003977 194.69735589 407.37651736 191.25918746 407.38096714 C189.10843824 407.38390421 186.95769427 407.38801018 184.80694771 407.39247131 C178.06974443 407.40613499 171.33255326 407.41580739 164.59533709 407.4196732 C156.83289103 407.42415253 149.07062117 407.44169925 141.30822867 407.4706738 C135.29785785 407.49232571 129.28753648 407.50237934 123.27712709 407.50371432 C119.69200593 407.50475976 116.10705066 407.51061175 112.52197075 407.52853394 C108.51985182 407.54815304 104.5180996 407.54371173 100.51593781 407.53722382 C99.33695923 407.5464386 98.15798065 407.55565338 96.94327545 407.5651474 C87.40566777 407.51675469 80.5318312 405.81407827 73.45270538 399.110466 C68.30916586 393.26929698 68.39245805 386.75018727 68.25739288 379.23155975 C69.06703224 368.6474162 74.12045869 358.66357752 78.75348663 349.3057785 C79.27426788 348.23070038 79.79504913 347.15562225 80.33161163 346.047966 C82.96745866 340.64314837 85.69216086 335.35572838 88.75348663 330.1807785 C89.50763143 328.8892511 90.26152454 327.59757671 91.01520538 326.3057785 C95.19623028 319.18773386 99.39294147 312.07903543 103.62848663 304.9932785 C104.16348785 304.09512421 104.16348785 304.09512421 104.70929718 303.17882538 C106.35201133 300.43903359 108.04065832 297.75110874 109.81598663 295.094841 C111.63133615 292.36449676 113.2672007 289.59744077 114.87848663 286.7432785 C118.44537875 280.57393292 122.35845521 274.68714194 126.33942413 268.782341 C128.40372589 265.71736131 130.40610702 262.61846446 132.37848663 259.4932785 C136.52995241 252.91931035 140.86717058 246.47145801 145.20661163 240.02062225 C150.02006097 232.8419435 154.69506076 225.57339497 159.3794632 218.31017303 C160.6456241 216.34793859 161.9140742 214.38720652 163.18317413 212.42687225 C165.38658951 209.01992647 167.5710196 205.60118264 169.75348663 202.1807785 C170.78795929 200.58169647 170.78795929 200.58169647 171.84333038 198.95030975 C176.90440901 190.97498239 181.00153676 182.82486314 184.75348663 174.1807785 C185.25235382 173.06445038 185.75122101 171.94812225 186.26520538 170.797966 C189.57993598 162.91479581 192.56694913 153.62116601 189.75348663 145.1807785 C168.05204257 143.83842114 151.73433046 158.68543905 136.19879913 172.2120285 C132.2467126 175.64439465 128.16810951 178.90389511 124.05817413 182.14562225 C121.61904242 184.29949958 119.75851552 186.6251884 117.75348663 189.1807785 C116.65946197 190.19443643 115.53361191 191.17483908 114.37848663 192.1182785 C110.2305362 195.66360218 106.36336135 199.45340549 102.50348663 203.3057785 C101.90101105 203.90382294 101.29853546 204.50186737 100.67780304 205.11803436 C97.4768814 208.32921251 94.54014078 211.59524157 91.75348663 215.1807785 C89.35532067 217.6404359 86.90299922 220.0353068 84.44098663 222.4307785 C81.44930789 225.49203118 78.63085373 228.67605166 75.81598663 231.8995285 C73.54233667 234.41432316 71.15243288 236.78545604 68.75348663 239.1807785 C66.95015394 241.10912099 65.15764114 243.04303331 63.37848663 244.9932785 C62.89371857 245.52316376 62.4089505 246.05304901 61.90949249 246.59899139 C58.78465276 250.02386574 55.72044346 253.49490155 52.68708038 257.001091 C50.64293323 259.30540234 48.55006867 261.55784894 46.44879913 263.80992889 C41.33152326 269.29556589 36.44567202 274.85693725 31.78864288 280.7432785 C29.5818799 283.38631133 27.20070719 285.76003483 24.75348663 288.1807785 C23.2420832 289.83711103 21.74186858 291.50372843 20.25348663 293.1807785 C17.177103 296.61879001 14.0626096 299.96357562 10.75348663 303.1807785 C9.54692413 304.4182785 9.54692413 304.4182785 8.31598663 305.6807785 C5.58222951 308.34785862 2.68671217 310.73642389 -0.24651337 313.1807785 C-2.48060648 315.35901929 -4.66588659 317.57277726 -6.82073212 319.829216 C-8.26083441 321.31464839 -9.75070801 322.75145338 -11.24651337 324.1807785 C-11.90651337 324.1807785 -12.56651337 324.1807785 -13.24651337 324.1807785 C-13.51423553 324.7813205 -13.7819577 325.38186249 -14.05779266 326.00060272 C-15.26744274 328.21916406 -16.36423815 329.42889058 -18.26604462 331.063591 C-18.87037323 331.58670868 -19.47470184 332.10982635 -20.09734344 332.64879608 C-21.06837006 333.46900238 -21.06837006 333.46900238 -22.05901337 334.3057785 C-22.72247772 334.87256317 -23.38594208 335.43934784 -24.06951141 336.0233078 C-28.49272178 339.77290612 -32.98239505 343.43259758 -37.55901337 346.9932785 C-38.37559418 347.63257294 -38.37559418 347.63257294 -39.20867157 348.28478241 C-43.00064299 351.1807785 -43.00064299 351.1807785 -45.24651337 351.1807785 C-45.57651337 352.1707785 -45.90651337 353.1607785 -46.24651337 354.1807785 C-49.24651337 356.1807785 -49.24651337 356.1807785 -52.24651337 356.1807785 C-52.24651337 356.8407785 -52.24651337 357.5007785 -52.24651337 358.1807785 C-54.37932587 359.80968475 -54.37932587 359.80968475 -57.37151337 361.7432785 C-58.47623993 362.45741913 -59.58096649 363.17155975 -60.71916962 363.907341 C-61.30327606 364.28149139 -61.88738251 364.65564178 -62.48918915 365.04113007 C-64.17327825 366.13328454 -65.83363297 367.26177694 -67.49260712 368.391716 C-76.27032828 374.28488569 -85.43493692 378.80530047 -95.0580368 383.15880585 C-97.19992301 384.15902178 -99.28578541 385.23600233 -101.37932587 386.33312225 C-104.91569384 388.11975685 -108.35515779 389.12007942 -112.24651337 389.9307785 C-113.38088837 390.17312225 -114.51526337 390.415466 -115.68401337 390.6651535 C-116.95245087 390.92038788 -116.95245087 390.92038788 -118.24651337 391.1807785 C-129.05704574 379.61602294 -130.39918216 369.24467887 -130.38022614 353.94741058 C-130.38209587 352.59484827 -130.38439722 351.24228649 -130.38709146 349.88972557 C-130.39319569 346.18319412 -130.39307749 342.47668527 -130.39189708 338.77014995 C-130.39169273 334.7686966 -130.39721509 330.76725045 -130.40195465 326.76580048 C-130.41025394 318.93041141 -130.41300916 311.09502987 -130.41356703 303.25963677 C-130.41404248 296.89021885 -130.41609868 290.5208034 -130.41926765 284.15138626 C-130.42807184 266.08762369 -130.43268734 248.02386706 -130.43193718 229.96010233 C-130.43189722 228.98669012 -130.43185727 228.0132779 -130.4318161 227.01036835 C-130.43177522 226.03576601 -130.43173434 225.06116367 -130.43169222 224.05702792 C-130.4312857 208.25935213 -130.44085744 192.46170018 -130.45495447 176.66403128 C-130.46931945 160.43791646 -130.4762246 144.21181325 -130.47536069 127.98569191 C-130.47502879 118.87800266 -130.47777296 109.7703384 -130.48853874 100.66265488 C-130.49764528 92.90909449 -130.49981768 85.15557042 -130.49302932 77.402007 C-130.48976505 73.44749761 -130.48970411 69.4930579 -130.49838257 65.53855515 C-130.50625244 61.9151928 -130.50481119 58.29195533 -130.49609844 54.66859601 C-130.49384049 52.74394603 -130.50138823 50.81929215 -130.50933808 48.89465725 C-130.47107853 39.27604721 -129.68717253 31.66708924 -124.43401337 23.4307785 C-123.4343454 21.82976288 -123.4343454 21.82976288 -122.41448212 20.1964035 C-115.53429431 10.62612425 -105.05509449 3.82459868 -93.49138641 1.62218475 C-86.24917316 0.63701271 -78.9193099 0.67548344 -71.62151337 0.5557785 C-70.67183685 0.53776184 -69.72216034 0.51974518 -68.74370575 0.50118256 C-45.83259381 0.07519169 -22.91438867 0.04225892 0 0 Z " fill="#0D1A15" transform="translate(186.24651336669922,47.81922149658203)"/>
<path d="M0 0 C1.5625 1.125 1.5625 1.125 2.5625 3.125 C4.11604907 16.36836913 -2.60473684 25.67330061 -10.421875 35.66015625 C-11.75447443 37.33107065 -13.09551239 38.99529342 -14.4453125 40.65234375 C-17.04282998 43.87632133 -19.52112637 47.18624661 -21.9921875 50.5078125 C-22.46914063 51.04148438 -22.94609375 51.57515625 -23.4375 52.125 C-24.0975 52.125 -24.7575 52.125 -25.4375 52.125 C-25.685 52.68703125 -25.9325 53.2490625 -26.1875 53.828125 C-27.65024867 56.51592569 -29.40554873 58.58905482 -31.4375 60.875 C-32.13875 61.67421875 -32.84 62.4734375 -33.5625 63.296875 C-35.4375 65.125 -35.4375 65.125 -37.4375 65.125 C-37.81455078 65.97771484 -37.81455078 65.97771484 -38.19921875 66.84765625 C-42.07089037 73.96811226 -48.99466429 79.7752139 -54.75 85.375 C-57.74167875 88.43625267 -60.5601329 91.62027316 -63.375 94.84375 C-65.64870558 97.35860617 -68.03482162 99.73341091 -70.4375 102.125 C-77.00009749 109.01236768 -82.9729702 116.2118475 -88.7890625 123.7265625 C-91.09316141 126.70082409 -93.46882196 129.60737442 -95.875 132.5 C-106.52431578 145.47589809 -116.07794037 159.20318239 -125.4375 173.125 C-125.89930664 173.81013672 -126.36111328 174.49527344 -126.83691406 175.20117188 C-136.09501071 188.94866196 -144.97027128 202.87732146 -153.4375 217.125 C-155.49649857 220.58543273 -157.55993526 224.04318468 -159.625 227.5 C-160.11202393 228.32000488 -160.59904785 229.14000977 -161.10083008 229.98486328 C-163.94982559 234.75296377 -166.91239318 239.41335728 -170.03637695 244.00634766 C-171.53774495 246.11965419 -171.53774495 246.11965419 -172.46865845 248.71896362 C-174.4375 251.125 -174.4375 251.125 -178.33753967 251.74645996 C-180.0048888 251.77014638 -181.67276796 251.76589399 -183.34008789 251.74023438 C-184.25105225 251.74578339 -185.1620166 251.7513324 -186.10058594 251.75704956 C-189.12097332 251.76888656 -192.139873 251.74451664 -195.16015625 251.71875 C-197.26183504 251.7170389 -199.36351596 251.71710457 -201.4651947 251.71887207 C-205.87796356 251.71721615 -210.29022609 251.69847805 -214.70288086 251.66699219 C-220.3395185 251.62748447 -225.97548732 251.62292562 -231.61223698 251.63045502 C-235.95763698 251.63353755 -240.30288874 251.62135586 -244.64825249 251.60432434 C-246.72491969 251.597324 -248.80160372 251.59416618 -250.87828255 251.59501648 C-253.79554163 251.59320287 -256.71202654 251.57168302 -259.62915039 251.54492188 C-260.90063179 251.54931778 -260.90063179 251.54931778 -262.19779968 251.55380249 C-270.53672597 251.43677695 -280.68363969 249.36232771 -287.4375 244.125 C-287.81586972 242.80374104 -288.15389355 241.46978856 -288.4375 240.125 C-287.30570312 239.71507812 -286.17390625 239.30515625 -285.0078125 238.8828125 C-272.82811279 234.30538689 -261.28770688 228.45106352 -250.515625 221.16796875 C-247.82961169 219.38524672 -245.09304039 217.79702269 -242.28564453 216.21704102 C-238.81340436 214.16534613 -235.53857494 211.83100382 -232.25 209.5 C-231.5060498 208.97365967 -230.76209961 208.44731934 -229.99560547 207.9050293 C-223.52899989 203.28054902 -217.47798014 198.29401059 -211.4375 193.125 C-209.58659464 191.6209776 -207.73245832 190.120922 -205.875 188.625 C-201.09968184 184.73043216 -196.53630449 180.64167473 -192 176.47265625 C-187.84588583 172.66682909 -183.60217456 168.9639804 -179.30859375 165.31640625 C-175.59194271 162.13363879 -172.41763337 159.03000234 -169.4375 155.125 C-167.7920622 153.43737149 -166.12461423 151.7709651 -164.4375 150.125 C-163.6125 149.279375 -162.7875 148.43375 -161.9375 147.5625 C-159.4375 145.125 -159.4375 145.125 -157.0625 143.3125 C-154.26995009 140.98537508 -152.18464051 138.5399442 -149.9375 135.6875 C-146.95872797 131.91683611 -143.85919572 128.49734434 -140.4375 125.125 C-139.25673068 123.80413941 -138.08871139 122.47170012 -136.9375 121.125 C-134.21875533 117.99024053 -131.41025668 115.02343777 -128.4375 112.125 C-124.24692227 108.03564395 -120.26581585 103.85132872 -116.4453125 99.4140625 C-114.49337895 97.18870635 -112.49461244 95.01222111 -110.48144531 92.84228516 C-105.54182298 87.51680795 -100.8479431 82.07998484 -96.3125 76.40234375 C-94.75772763 74.51394315 -93.28536476 72.72613282 -91.4375 71.125 C-90.7775 71.125 -90.1175 71.125 -89.4375 71.125 C-89.22480469 70.59390625 -89.01210938 70.0628125 -88.79296875 69.515625 C-86.91505274 66.20356564 -84.35722086 63.61550622 -81.75 60.875 C-80.66063671 59.71431225 -79.57209156 58.55285609 -78.484375 57.390625 C-77.95908203 56.83052734 -77.43378906 56.27042969 -76.89257812 55.69335938 C-74.53857425 53.15609076 -72.27988161 50.54006109 -70.03515625 47.90625 C-67.92506543 45.5536793 -65.67506659 43.35678631 -63.4375 41.125 C-61.6202636 39.2859762 -59.80390356 37.44608612 -57.98828125 35.60546875 C-56.44079271 34.04326113 -54.89236296 32.48199331 -53.34350586 30.92114258 C-52.27403132 29.8415091 -51.20634361 28.76010289 -50.14038086 27.67700195 C-48.59432406 26.10681389 -47.04200772 24.54306311 -45.48828125 22.98046875 C-44.56700439 22.04871826 -43.64572754 21.11696777 -42.6965332 20.15698242 C-40.4375 18.125 -40.4375 18.125 -38.4375 18.125 C-38.210625 17.50625 -37.98375 16.8875 -37.75 16.25 C-36.05820165 13.51089791 -34.44505839 13.07475528 -31.4375 12.125 C-31.4375 11.465 -31.4375 10.805 -31.4375 10.125 C-29.46254204 8.70700427 -27.51783719 7.43336773 -25.4375 6.1875 C-24.84171143 5.82849609 -24.24592285 5.46949219 -23.63208008 5.09960938 C-16.22506156 0.71949263 -8.67679099 -3.11474548 0 0 Z " fill="#B3885B" transform="translate(364.4375,203.875)"/>
<path d="M0 0 C0 3.29223784 -0.50518132 5.08510357 -2 8 C-3.33333333 8.66666667 -4.66666667 9.33333333 -6 10 C-6.28875 10.721875 -6.5775 11.44375 -6.875 12.1875 C-8.45820089 16.14550223 -10.84637089 19.13937311 -14 22 C-16.875 22.9375 -16.875 22.9375 -19 23 C-19.12375 23.639375 -19.2475 24.27875 -19.375 24.9375 C-19.58125 25.618125 -19.7875 26.29875 -20 27 C-20.66 27.33 -21.32 27.66 -22 28 C-22.66 27.34 -23.32 26.68 -24 26 C-21.21662937 22.39192696 -18.21883646 19.21883646 -15 16 C-13.99079679 14.8412852 -12.99118105 13.67416832 -12 12.5 C-9.47126026 9.51089994 -6.80694409 6.73307714 -4 4 C-3.236875 3.236875 -2.47375 2.47375 -1.6875 1.6875 C-1.130625 1.130625 -0.57375 0.57375 0 0 Z " fill="#B08E65" transform="translate(228,325)"/>
<path d="M0 0 C-1.70975434 5.44012743 -4.98985749 8.45373653 -9.4375 11.875 C-12.7134658 14.59165456 -15.31341864 17.71332315 -18 21 C-18.74609375 19.3203125 -18.74609375 19.3203125 -19 17 C-17.34765625 14.4921875 -17.34765625 14.4921875 -15.0625 11.875 C-12.02617806 8.84324089 -12.02617806 8.84324089 -11 5 C-9.68 5 -8.36 5 -7 5 C-6.731875 4.360625 -6.46375 3.72125 -6.1875 3.0625 C-4.60976325 0.32222039 -3.09853405 0 0 0 Z " fill="#BD9D73" transform="translate(320,276)"/>
<path d="M0 0 C0.33 0.99 0.66 1.98 1 3 C0.401875 3.556875 -0.19625 4.11375 -0.8125 4.6875 C-3.0546036 6.88564321 -3.0546036 6.88564321 -4.4375 9.4375 C-6.68739063 13.12732063 -9.14578836 16.34852024 -13.3125 17.8125 C-13.869375 17.874375 -14.42625 17.93625 -15 18 C-14.67 18.99 -14.34 19.98 -14 21 C-15.32 21 -16.64 21 -18 21 C-16.30028018 16.94452815 -13.51168838 13.80801348 -10.6875 10.5 C-10.21376953 9.93152344 -9.74003906 9.36304688 -9.25195312 8.77734375 C-6.41890192 5.43659117 -3.5362819 2.62805649 0 0 Z " fill="#3A3E37" transform="translate(274,148)"/>
<path d="M0 0 C0.5534764 2.07553648 1 3.84365964 1 6 C-0.47704212 7.25227484 -1.95827399 8.50166522 -3.4921875 9.68359375 C-5.26762944 11.11764091 -5.26762944 11.11764091 -7 14 C-10.66666667 18.66666667 -10.66666667 18.66666667 -12 20 C-13.66617115 20.04063832 -15.33388095 20.042721 -17 20 C-15.8553125 18.6696875 -15.8553125 18.6696875 -14.6875 17.3125 C-9.76143374 11.56740104 -4.8848574 5.78012486 0 0 Z " fill="#474940" transform="translate(188,249)"/>
<path d="M0 0 C0.66 0.33 1.32 0.66 2 1 C1.3503125 1.59748047 1.3503125 1.59748047 0.6875 2.20703125 C0.130625 2.73683594 -0.42625 3.26664062 -1 3.8125 C-1.556875 4.33457031 -2.11375 4.85664063 -2.6875 5.39453125 C-4.316465 7.04148967 -4.316465 7.04148967 -4 10 C-4.66 10 -5.32 10 -6 10 C-6 10.66 -6 11.32 -6 12 C-7.7664657 13.0076952 -9.53833823 14.00591714 -11.3125 15 C-12.79169922 15.8353125 -12.79169922 15.8353125 -14.30078125 16.6875 C-17 18 -17 18 -20 18 C-13.40235323 11.91916889 -6.79775623 5.8580664 0 0 Z " fill="#C8AC86" transform="translate(175,378)"/>
<path d="M0 0 C0.66 0.33 1.32 0.66 2 1 C-5.04661513 9.96462872 -5.04661513 9.96462872 -11 11 C-13.875 11.125 -13.875 11.125 -16 11 C-12.00255759 7.53554991 -7.65897385 4.9279507 -3.109375 2.26953125 C-1.08819514 1.1686003 -1.08819514 1.1686003 0 0 Z " fill="#C7AB89" transform="translate(122,420)"/>
<path d="M0 0 C0.66 0.99 1.32 1.98 2 3 C-1.63 6.96 -5.26 10.92 -9 15 C-9.66 13.68 -10.32 12.36 -11 11 C-9.68 11 -8.36 11 -7 11 C-7 9.35 -7 7.7 -7 6 C-6.360625 5.71125 -5.72125 5.4225 -5.0625 5.125 C-2.84793921 4.17176549 -2.84793921 4.17176549 -2 2 C-1.34 1.34 -0.68 0.68 0 0 Z " fill="#4A4F43" transform="translate(237,302)"/>
<path d="M0 0 C0 3.77910478 -0.99703962 4.46106101 -3.5 7.1875 C-4.1496875 7.90292969 -4.799375 8.61835938 -5.46875 9.35546875 C-5.9740625 9.89816406 -6.479375 10.44085938 -7 11 C-6.34 11.33 -5.68 11.66 -5 12 C-5.66 12.66 -6.32 13.32 -7 14 C-7.99 14 -8.98 14 -10 14 C-10 14.66 -10 15.32 -10 16 C-11.98 16.99 -13.96 17.98 -16 19 C-14.29906612 14.68388029 -11.13515241 11.68761387 -8 8.375 C-7.18015625 7.49714844 -7.18015625 7.49714844 -6.34375 6.6015625 C-4.25718606 4.37180299 -2.15944305 2.15944305 0 0 Z " fill="#CBAE89" transform="translate(291,256)"/>
<path d="M0 0 C1.32 0.33 2.64 0.66 4 1 C4 1.66 4 2.32 4 3 C4.99 2.67 5.98 2.34 7 2 C4.68956625 7.67106467 0.2661459 11.14123508 -5 14 C-5 12.68 -5 11.36 -5 10 C-3.68 9.67 -2.36 9.34 -1 9 C-0.67 6.03 -0.34 3.06 0 0 Z " fill="#565951" transform="translate(274,256)"/>
<path d="M0 0 C0 0.33 0 0.66 0 1 C-1.65 1 -3.3 1 -5 1 C-5 1.66 -5 2.32 -5 3 C-6.8871875 2.8453125 -6.8871875 2.8453125 -8.8125 2.6875 C-14.11741069 2.63713692 -17.90301168 4.54575947 -22.51953125 7.00390625 C-25.24933693 8.10012743 -26.30697149 8.04833511 -29 7 C-19.55371182 2.21290618 -10.64092672 -0.47293008 0 0 Z " fill="#949487" transform="translate(405,50)"/>
<path d="M0 0 C0 3.15540097 -0.40097737 4.0933799 -1.8984375 6.7578125 C-2.29546875 7.46550781 -2.6925 8.17320312 -3.1015625 8.90234375 C-3.52179688 9.63582031 -3.94203125 10.36929687 -4.375 11.125 C-4.7875 11.86621094 -5.2 12.60742188 -5.625 13.37109375 C-8.74192841 18.87096421 -8.74192841 18.87096421 -11 20 C-10.77169299 18.37181054 -10.51656424 16.7473651 -10.25 15.125 C-10.11078125 14.22007812 -9.9715625 13.31515625 -9.828125 12.3828125 C-9 10 -9 10 -6.98828125 8.90234375 C-6.33214844 8.60457031 -5.67601562 8.30679687 -5 8 C-4.30643577 5.67451993 -3.63850788 3.34119555 -3 1 C-2.01 0.67 -1.02 0.34 0 0 Z " fill="#CEB596" transform="translate(207,424)"/>
<path d="M0 0 C0.99 0.66 1.98 1.32 3 2 C3 2.99 3 3.98 3 5 C1.36739286 6.37482707 -0.30225062 7.70647667 -2 9 C-2.99 10.485 -2.99 10.485 -4 12 C-4.99 12 -5.98 12 -7 12 C-5.44298069 7.32894208 -2.91552627 3.91294315 0 0 Z " fill="#4E5145" transform="translate(67,64)"/>
<path d="M0 0 C0.66 0.33 1.32 0.66 2 1 C-1.68749714 5.26366857 -5.36749089 7.90261254 -11 9 C-12.3410576 8.69924528 -13.67622367 8.36946599 -15 8 C-12.54665445 6.63603538 -10.08808766 5.28365831 -7.625 3.9375 C-6.92632812 3.54755859 -6.22765625 3.15761719 -5.5078125 2.75585938 C-3.70389816 1.77584822 -1.85416518 0.88124929 0 0 Z " fill="#CDB08C" transform="translate(104,431)"/>
<path d="M0 0 C0.66 0.33 1.32 0.66 2 1 C0.625 2.5 0.625 2.5 -1 4 C-1.66 4 -2.32 4 -3 4 C-3.12375 4.5775 -3.2475 5.155 -3.375 5.75 C-4.03816998 8.13741194 -4.58836567 9.95313022 -6 12 C-8.79597286 12.86029934 -11.07171074 13 -14 13 C-12.88121617 11.82737096 -11.75476949 10.66204862 -10.625 9.5 C-9.99851562 8.8503125 -9.37203125 8.200625 -8.7265625 7.53125 C-7 6 -7 6 -5 6 C-4.731875 5.38125 -4.46375 4.7625 -4.1875 4.125 C-3 2 -3 2 0 0 Z " fill="#D0B497" transform="translate(331,216)"/>
<path d="M0 0 C0 0.66 0 1.32 0 2 C-0.99 2.33 -1.98 2.66 -3 3 C-3.53625 3.804375 -4.0725 4.60875 -4.625 5.4375 C-7.93902689 9.0131606 -11.30327833 9.32760609 -16 10 C-12.15364338 5.6573393 -6.12239358 0 0 0 Z " fill="#5F6157" transform="translate(372,60)"/>
<path d="M0 0 C0.66 0.33 1.32 0.66 2 1 C-1.29509191 6.69152239 -3.79705202 8.60587973 -10 11 C-10.99 11 -11.98 11 -13 11 C-11.58510266 9.72719706 -10.16800334 8.4568417 -8.75 7.1875 C-7.96109375 6.47980469 -7.1721875 5.77210938 -6.359375 5.04296875 C-4.2983167 3.25831065 -2.20394477 1.60240938 0 0 Z " fill="#CAAC84" transform="translate(153,397)"/>
<path d="M0 0 C0.609375 1.86328125 0.609375 1.86328125 1 4 C-1.21867135 6.77333918 -2.60620325 7.86873442 -6 9 C-5.67 9.99 -5.34 10.98 -5 12 C-6.98 12.66 -8.96 13.32 -11 14 C-9.42219077 10.28954753 -7.09296752 7.70093616 -4.375 4.75 C-3.55773437 3.85796875 -2.74046875 2.9659375 -1.8984375 2.046875 C-1.27195313 1.37140625 -0.64546875 0.6959375 0 0 Z " fill="#63675B" transform="translate(248,177)"/>
<path d="M0 0 C0.33 1.32 0.66 2.64 1 4 C0.0925 4.53625 -0.815 5.0725 -1.75 5.625 C-4.36812481 7.34180316 -5.24352892 8.36898322 -7.0625 11.125 C-9.18095372 14.26851197 -10.41676943 15.00465817 -14 16 C-12.42840852 12.14245727 -9.98922513 9.85637068 -7 7 C-5.72652735 5.73181147 -4.45576341 4.46089807 -3.1875 3.1875 C-2.125 2.125 -1.0625 1.0625 0 0 Z " fill="#C9B190" transform="translate(243,309)"/>
<path d="M0 0 C0.99 0.33 1.98 0.66 3 1 C-0.15032615 4.8704007 -3.27153863 8.66400825 -7 12 C-7.99 12 -8.98 12 -10 12 C-9.34 11.34 -8.68 10.68 -8 10 C-7.3574765 7.93125966 -7.3574765 7.93125966 -7 6 C-6.01 6 -5.02 6 -4 6 C-3.71125 5.38125 -3.4225 4.7625 -3.125 4.125 C-2 2 -2 2 0 0 Z " fill="#636759" transform="translate(312,224)"/>
<path d="M0 0 C0.28875 0.598125 0.5775 1.19625 0.875 1.8125 C2.04742026 4.19327792 2.04742026 4.19327792 4 7 C4.36162029 8.32594105 4.69728039 9.65938457 5 11 C5.33 11.66 5.66 12.32 6 13 C2.18688695 11.5019913 0.27516449 9.37351976 -2 6 C-2.75 3.1875 -2.75 3.1875 -3 1 C-2.01 0.67 -1.02 0.34 0 0 Z M0 5 C0.33 5.66 0.66 6.32 1 7 C1.33 6.34 1.66 5.68 2 5 C1.34 5 0.68 5 0 5 Z " fill="#545A4E" transform="translate(259,437)"/>
<path d="M0 0 C0.66 0.33 1.32 0.66 2 1 C2 1.99 2 2.98 2 4 C1.34 4 0.68 4 0 4 C0 4.66 0 5.32 0 6 C-0.66 6 -1.32 6 -2 6 C-2 6.66 -2 7.32 -2 8 C-2.66 8 -3.32 8 -4 8 C-4.33 8.66 -4.66 9.32 -5 10 C-6.64363134 10.72159424 -8.31050386 11.39351421 -10 12 C-8.43873668 8.16780823 -5.97133075 5.82638778 -3 3 C-2.401875 2.401875 -1.80375 1.80375 -1.1875 1.1875 C-0.795625 0.795625 -0.40375 0.40375 0 0 Z " fill="#CAAC8A" transform="translate(202,352)"/>
<path d="M0 0 C0 0.66 0 1.32 0 2 C-0.99 2 -1.98 2 -3 2 C-2.67 2.99 -2.34 3.98 -2 5 C-2.66 5 -3.32 5 -4 5 C-4 5.99 -4 6.98 -4 8 C-6.64 8 -9.28 8 -12 8 C-4.43243243 0 -4.43243243 0 0 0 Z " fill="#5A5E55" transform="translate(82,54)"/>
<path d="M0 0 C0 2.83967231 -0.40267181 5.23735711 -1 8 C-2.65 8.33 -4.3 8.66 -6 9 C-6.12375 9.639375 -6.2475 10.27875 -6.375 10.9375 C-6.58125 11.618125 -6.7875 12.29875 -7 13 C-7.99 13.495 -7.99 13.495 -9 14 C-9.66 13.34 -10.32 12.68 -11 12 C-8.22095576 8.39753524 -5.25893558 5.17317412 -2 2 C-1.34 1.34 -0.68 0.68 0 0 Z " fill="#C6A683" transform="translate(215,339)"/>
<path d="M0 0 C0.99 0.33 1.98 0.66 3 1 C-2.59875686 5.69169569 -8.11032176 8.59990717 -15 11 C-15 10.34 -15 9.68 -15 9 C-12.89914656 7.55307418 -10.81758184 6.23038317 -8.625 4.9375 C-8.02171875 4.57333984 -7.4184375 4.20917969 -6.796875 3.83398438 C-4.56080366 2.48985704 -2.33435542 1.16717771 0 0 Z " fill="#D4B891" transform="translate(348,205)"/>
<path d="M0 0 C3.20217249 2.13478166 4.27285259 3.62795029 6 7 C6 7.99 6 8.98 6 10 C4.68 10.33 3.36 10.66 2 11 C0.9375 9.125 0.9375 9.125 0 7 C0.33 6.34 0.66 5.68 1 5 C0.34 4.67 -0.32 4.34 -1 4 C-0.67 2.68 -0.34 1.36 0 0 Z " fill="#474A40" transform="translate(432,65)"/>
<path d="M0 0 C2.125 0.375 2.125 0.375 4 1 C2.69118353 2.66956087 1.37785174 4.33558304 0.0625 6 C-0.66839844 6.928125 -1.39929688 7.85625 -2.15234375 8.8125 C-2.76207031 9.534375 -3.37179687 10.25625 -4 11 C-4.33 11 -4.66 11 -5 11 C-5 9.35 -5 7.7 -5 6 C-3.68 5.67 -2.36 5.34 -1 5 C-1.33 4.01 -1.66 3.02 -2 2 C-1.34 1.34 -0.68 0.68 0 0 Z " fill="#C6AB84" transform="translate(277,320)"/>
<path d="M0 0 C0 3.50492555 -0.56962239 5.79867869 -2 9 C-4.375 10.1875 -4.375 10.1875 -7 11 C-8.36365283 11.95824253 -9.70794169 12.94721175 -11 14 C-9.42219077 10.28954753 -7.09296752 7.70093616 -4.375 4.75 C-3.55773437 3.85796875 -2.74046875 2.9659375 -1.8984375 2.046875 C-1.27195312 1.37140625 -0.64546875 0.6959375 0 0 Z " fill="#D3B793" transform="translate(273,275)"/>
<path d="M0 0 C0.66 0.66 1.32 1.32 2 2 C1.73015449 4.60850658 0.90551306 6.14960433 -0.5 8.375 C-2.16597341 11.29045347 -2.614848 13.68769281 -3 17 C-3.99 17.33 -4.98 17.66 -6 18 C-4.23536928 11.89262558 -2.30442525 5.92566493 0 0 Z " fill="#696C5F" transform="translate(376,209)"/>
<path d="M0 0 C0.99 0.33 1.98 0.66 3 1 C2.52467862 6.07009471 -0.04362294 9.97493258 -3 14 C-3.33 14 -3.66 14 -4 14 C-4 12.35 -4 10.7 -4 9 C-3.34 9 -2.68 9 -2 9 C-2.33 8.01 -2.66 7.02 -3 6 C-1.68 5.67 -0.36 5.34 1 5 C0.67 3.35 0.34 1.7 0 0 Z " fill="#66695C" transform="translate(164,212)"/>
<path d="M0 0 C0 3.42085146 -0.78105603 5.81720186 -2 9 C-2.66 9.66 -3.32 10.32 -4 11 C-4 10.01 -4 9.02 -4 8 C-6.475 9.485 -6.475 9.485 -9 11 C-7.59155282 7.78475695 -5.89655214 5.67816132 -3.375 3.25 C-2.74335938 2.63640625 -2.11171875 2.0228125 -1.4609375 1.390625 C-0.73777344 0.70226562 -0.73777344 0.70226562 0 0 Z " fill="#595C52" transform="translate(302,116)"/>
<path d="M0 0 C0.99 0.33 1.98 0.66 3 1 C0.69 4.63 -1.62 8.26 -4 12 C-4.33 10.68 -4.66 9.36 -5 8 C-4.34 7.01 -3.68 6.02 -3 5 C-2.34 5 -1.68 5 -1 5 C-1.33 3.68 -1.66 2.36 -2 1 C-1.34 0.67 -0.68 0.34 0 0 Z " fill="#C4A482" transform="translate(239,371)"/>
<path d="M0 0 C0.66 0.33 1.32 0.66 2 1 C0.625 2.5 0.625 2.5 -1 4 C-1.66 4 -2.32 4 -3 4 C-3.268125 4.61875 -3.53625 5.2375 -3.8125 5.875 C-5 8 -5 8 -8 10 C-9.125 6.25 -9.125 6.25 -8 4 C-6.02 4.495 -6.02 4.495 -4 5 C-4.33 4.01 -4.66 3.02 -5 2 C-4.360625 1.855625 -3.72125 1.71125 -3.0625 1.5625 C-1.02454854 1.18992819 -1.02454854 1.18992819 0 0 Z " fill="#C7A67B" transform="translate(330,265)"/>
<path d="M0 0 C0.85329541 3.09319586 1 5.79336115 1 9 C-1 10.625 -1 10.625 -3 12 C-4.1484375 10.265625 -4.1484375 10.265625 -5 8 C-4.1015625 5.859375 -4.1015625 5.859375 -2.625 3.75 C-2.14289063 3.04359375 -1.66078125 2.3371875 -1.1640625 1.609375 C-0.77992188 1.07828125 -0.39578125 0.5471875 0 0 Z " fill="#4B4E42" transform="translate(354,253)"/>
<path d="M0 0 C0 4.29525524 -2.23382207 5.83865379 -5 9 C-5.99 10.485 -5.99 10.485 -7 12 C-9.625 12.6875 -9.625 12.6875 -12 13 C-8.19524578 8.43969176 -4.25030379 4.14910608 0 0 Z " fill="#CEAE8C" transform="translate(316,230)"/>
<path d="M0 0 C0.33 0.66 0.66 1.32 1 2 C0.06553465 4.03144641 -0.93224776 6.03533587 -2 8 C-2.99 8 -3.98 8 -5 8 C-4.67 8.99 -4.34 9.98 -4 11 C-5.32 11 -6.64 11 -8 11 C-6.63629701 8.00779732 -5.05091917 5.70973471 -2.875 3.25 C-2.33617187 2.63640625 -1.79734375 2.0228125 -1.2421875 1.390625 C-0.62730469 0.70226562 -0.62730469 0.70226562 0 0 Z " fill="#5D6151" transform="translate(264,158)"/>
<path d="M0 0 C0 3.62453269 -0.92469613 5.07920195 -3 8 C-3.99 8.33 -4.98 8.66 -6 9 C-6 9.99 -6 10.98 -6 12 C-6.66 12 -7.32 12 -8 12 C-8.33 12.66 -8.66 13.32 -9 14 C-9.66 13.34 -10.32 12.68 -11 12 C-8.22095576 8.39753524 -5.25893558 5.17317412 -2 2 C-1.34 1.34 -0.68 0.68 0 0 Z " fill="#CCB193" transform="translate(303,243)"/>
<path d="M0 0 C0.33 0.66 0.66 1.32 1 2 C-2.96 7.94 -2.96 7.94 -7 14 C-8.231394 11.53721199 -8.07159196 9.7204945 -8 7 C-7.21625 6.938125 -6.4325 6.87625 -5.625 6.8125 C-4.75875 6.544375 -3.8925 6.27625 -3 6 C-1.68931667 3.55711372 -1.68931667 3.55711372 -1 1 C-0.67 0.67 -0.34 0.34 0 0 Z " fill="#898C81" transform="translate(230,114)"/>
<path d="M0 0 C1 2 1 2 0.375 5.4375 C-1.16163629 9.41878493 -2.1915187 10.29620573 -6 12 C-4.68139111 7.38486888 -2.78644563 3.90102388 0 0 Z " fill="#676C59" transform="translate(279,372)"/>
<path d="M0 0 C0 3.45451168 -0.25037178 5.0110518 -2 8 C-4.55255145 9.61487949 -7.21478535 10.84057344 -10 12 C-8.75120909 8.25362727 -6.84204893 6.70986061 -4 4 C-3.236875 3.236875 -2.47375 2.47375 -1.6875 1.6875 C-1.130625 1.130625 -0.57375 0.57375 0 0 Z " fill="#D2B895" transform="translate(228,325)"/>
<path d="M0 0 C1 2 1 2 -0.125 5.4375 C-1.68880731 8.92879075 -3.479691 10.38256073 -7 12 C-5.44298069 7.32894208 -2.91552627 3.91294315 0 0 Z " fill="#626459" transform="translate(348,263)"/>
<path d="M0 0 C0.99 0.33 1.98 0.66 3 1 C1.44499019 4.81684226 -1.03595495 7.19195732 -4 10 C-4 8.35 -4 6.7 -4 5 C-3.34 5 -2.68 5 -2 5 C-1.7834375 4.0409375 -1.7834375 4.0409375 -1.5625 3.0625 C-1 1 -1 1 0 0 Z " fill="#C4A57F" transform="translate(336,255)"/>
<path d="M0 0 C0.99 0.33 1.98 0.66 3 1 C2.04578192 2.14926266 1.08647955 3.29430541 0.125 4.4375 C-0.40867187 5.07558594 -0.94234375 5.71367187 -1.4921875 6.37109375 C-3 8 -3 8 -5 9 C-4.67 7.35 -4.34 5.7 -4 4 C-3.01 3.67 -2.02 3.34 -1 3 C-0.67 2.01 -0.34 1.02 0 0 Z " fill="#4A4E41" transform="translate(286,249)"/>
<path d="M0 0 C1 3 1 3 0 6 C-0.66 6 -1.32 6 -2 6 C-2 7.32 -2 8.64 -2 10 C-3.65 10.66 -5.3 11.32 -7 12 C-5.44298069 7.32894208 -2.91552627 3.91294315 0 0 Z " fill="#676A5F" transform="translate(325,298)"/>
<path d="M0 0 C0.68359375 1.671875 0.68359375 1.671875 1 4 C-0.21484375 6.578125 -0.21484375 6.578125 -1.9375 9.25 C-2.50339844 10.14203125 -3.06929688 11.0340625 -3.65234375 11.953125 C-4.09707031 12.62859375 -4.54179687 13.3040625 -5 14 C-6 11 -6 11 -5.25 8.5 C-4.04875392 6.09750785 -2.90968087 4.82665127 -1 3 C-0.67 2.01 -0.34 1.02 0 0 Z " fill="#D2B594" transform="translate(364,219)"/>
<path d="M0 0 C0.99 0.33 1.98 0.66 3 1 C1.02 3.31 -0.96 5.62 -3 8 C-3.33 6.68 -3.66 5.36 -4 4 C-2.0625 1.75 -2.0625 1.75 0 0 Z " fill="#4A4D42" transform="translate(295,240)"/>
<path d="M0 0 C1.2077558 3.62326739 0.54311128 4.64146369 -1 8 C-1.99 8 -2.98 8 -4 8 C-4.99 8.495 -4.99 8.495 -6 9 C-4.47291037 5.56404834 -2.40072955 2.88087546 0 0 Z " fill="#6D6E67" transform="translate(236,191)"/>
<path d="M0 0 C0 3 0 3 -1.3125 4.60546875 C-1.869375 5.12753906 -2.42625 5.64960938 -3 6.1875 C-3.556875 6.71730469 -4.11375 7.24710937 -4.6875 7.79296875 C-5.120625 8.19128906 -5.55375 8.58960938 -6 9 C-6.66 8.67 -7.32 8.34 -8 8 C-7.34 7.01 -6.68 6.02 -6 5 C-5.67 4.01 -5.34 3.02 -5 2 C-3 1.375 -3 1.375 -1 1 C-0.67 0.67 -0.34 0.34 0 0 Z " fill="#838276" transform="translate(433,436)"/>
<path d="M0 0 C0.763125 0.0825 1.52625 0.165 2.3125 0.25 C2.6425 0.91 2.9725 1.57 3.3125 2.25 C0.5 3.8125 0.5 3.8125 -2.6875 5.25 C-3.6775 4.92 -4.6675 4.59 -5.6875 4.25 C-3.34903846 0.31153846 -3.34903846 0.31153846 0 0 Z " fill="#4C4D42" transform="translate(90.6875,427.75)"/>
<path d="M0 0 C0.66 0.33 1.32 0.66 2 1 C1.34 2.65 0.68 4.3 0 6 C-2.31 6 -4.62 6 -7 6 C-4.74259377 3.66475218 -2.7194239 1.81294927 0 0 Z " fill="#CCAF8D" transform="translate(131,414)"/>
<path d="M0 0 C0 1.32 0 2.64 0 4 C-6.625 6 -6.625 6 -10 6 C-8.71283353 4.99421411 -7.42011342 3.99553202 -6.125 3 C-5.40570313 2.443125 -4.68640625 1.88625 -3.9453125 1.3125 C-2 0 -2 0 0 0 Z " fill="#6A685F" transform="translate(356,70)"/>
<path d="M0 0 C0.99 0 1.98 0 3 0 C3 0.66 3 1.32 3 2 C-2.625 5 -2.625 5 -6 5 C-6 4.01 -6 3.02 -6 2 C-4.02 2 -2.04 2 0 2 C0 1.34 0 0.68 0 0 Z " fill="#505348" transform="translate(415,448)"/>
<path d="M0 0 C0.66 0.33 1.32 0.66 2 1 C1.46930939 4.82097239 0.50298434 7.06171403 -2 10 C-2.33 7.69 -2.66 5.38 -3 3 C-2.34 3 -1.68 3 -1 3 C-0.67 2.01 -0.34 1.02 0 0 Z " fill="#5A5E54" transform="translate(439,422)"/>
<path d="M0 0 C0.33 0.66 0.66 1.32 1 2 C-0.98 4.97 -2.96 7.94 -5 11 C-6.43088528 8.13822943 -5.59991697 6.06624227 -5 3 C-4.01 3 -3.02 3 -2 3 C-1.34 2.01 -0.68 1.02 0 0 Z " fill="#97948B" transform="translate(190,175)"/>
<path d="M0 0 C1.32 0.66 2.64 1.32 4 2 C2.35 3.98 0.7 5.96 -1 8 C-2.3418344 5.31633121 -1.73004953 3.84719317 -1 1 C-0.67 0.67 -0.34 0.34 0 0 Z " fill="#C3A17E" transform="translate(283,312)"/>
<path d="M0 0 C0 1.65 0 3.3 0 5 C-1.175625 5.4640625 -1.175625 5.4640625 -2.375 5.9375 C-4.92330128 6.92875038 -4.92330128 6.92875038 -7 8 C-5.84316054 5.30070793 -3.38550714 0 0 0 Z " fill="#CEAE8B" transform="translate(251,301)"/>
<path d="M0 0 C-2.14331139 2.14331139 -3.14086424 2.514193 -6 3.25 C-6.70125 3.44078125 -7.4025 3.6315625 -8.125 3.828125 C-8.74375 3.88484375 -9.3625 3.9415625 -10 4 C-10.66 3.34 -11.32 2.68 -12 2 C-7.82262526 0.40861915 -4.46839215 -0.21278058 0 0 Z " fill="#AF8D67" transform="translate(361,204)"/>
<path d="M0 0 C0 0.66 0 1.32 0 2 C0.99 2.33 1.98 2.66 3 3 C-3.0546875 3.1953125 -3.0546875 3.1953125 -5 3 C-5.66 2.34 -6.32 1.68 -7 1 C-4.53721199 -0.231394 -2.7204945 -0.07159196 0 0 Z " fill="#585C52" transform="translate(275,451)"/>
<path d="M0 0 C0 2 0 4 0 6 C-2.31 7.32 -4.62 8.64 -7 10 C-5.33248852 6.05860922 -2.77289351 3.2107188 0 0 Z " fill="#9D9F96" transform="translate(208,225)"/>
<path d="M0 0 C0.66 1.32 1.32 2.64 2 4 C0.02 6.97 0.02 6.97 -2 10 C-2 2 -2 2 0 0 Z " fill="#737469" transform="translate(237,99)"/>
<path d="M0 0 C0.66 0.33 1.32 0.66 2 1 C-1.44615385 5.8 -1.44615385 5.8 -4.25 6.8125 C-5.11625 6.9053125 -5.11625 6.9053125 -6 7 C-4.60667426 3.63279613 -3.0210714 2.0140476 0 0 Z " fill="#C3A988" transform="translate(235,318)"/>
<path d="M0 0 C0.66 0.99 1.32 1.98 2 3 C0.35 4.98 -1.3 6.96 -3 9 C-4.24546405 6.50907189 -3.7767578 5.58919267 -3 3 C-2.34 3 -1.68 3 -1 3 C-0.67 2.01 -0.34 1.02 0 0 Z " fill="#62655D" transform="translate(245,293)"/>
<path d="M0 0 C1.32 0.99 2.64 1.98 4 3 C2.35 4.65 0.7 6.3 -1 8 C-0.67 6.68 -0.34 5.36 0 4 C-0.66 3.67 -1.32 3.34 -2 3 C-1 1 -1 1 0 0 Z " fill="#5D615B" transform="translate(260,274)"/>
<path d="M0 0 C1.39195915 4.17587745 -0.17676781 6.13474776 -2 10 C-2.66 9.34 -3.32 8.68 -4 8 C-3.77256695 5.04337034 -3.38764062 3.44966312 -1.4375 1.1875 C-0.963125 0.795625 -0.48875 0.40375 0 0 Z " fill="#6B6E67" transform="translate(145,256)"/>
<path d="M0 0 C1.10844919 3.32534757 0.84454356 5.62182575 0 9 C-0.33 8.01 -0.66 7.02 -1 6 C-1.66 6 -2.32 6 -3 6 C-1.125 1.125 -1.125 1.125 0 0 Z " fill="#4A503D" transform="translate(363,239)"/>
<path d="M0 0 C0.99 0.33 1.98 0.66 3 1 C0.47211993 3.79872437 -1.20411134 5.45773019 -5 6 C-3.63016497 2.83884224 -3.0109362 2.0072908 0 0 Z " fill="#3B4139" transform="translate(203,233)"/>
<path d="M0 0 C0.33 0.99 0.66 1.98 1 3 C-0.9375 5.6875 -0.9375 5.6875 -3 8 C-3.625 5.625 -3.625 5.625 -4 3 C-3.34 2.34 -2.68 1.68 -2 1 C-1.34 1.33 -0.68 1.66 0 2 C0 1.34 0 0.68 0 0 Z " fill="#686B5E" transform="translate(159,226)"/>
<path d="M0 0 C1.65 0.33 3.3 0.66 5 1 C3.35 2.65 1.7 4.3 0 6 C-0.66 5.67 -1.32 5.34 -2 5 C-1.34 3.35 -0.68 1.7 0 0 Z " fill="#60655A" transform="translate(332,206)"/>
<path d="M0 0 C0.99 0 1.98 0 3 0 C1.68775452 3.93673644 0.08089673 6.22719294 -3 9 C-2.01 6.03 -1.02 3.06 0 0 Z " fill="#808278" transform="translate(195,164)"/>
<path d="M0 0 C5.875 2.75 5.875 2.75 7 5 C4.69 5 2.38 5 0 5 C0 3.35 0 1.7 0 0 Z " fill="#615F51" transform="translate(421,56)"/>
<path d="M0 0 C0.33 0 0.66 0 1 0 C1.25 2.3125 1.25 2.3125 1 5 C-1 6.8125 -1 6.8125 -3 8 C-2.25 2.25 -2.25 2.25 0 0 Z " fill="#BA9B75" transform="translate(304,289)"/>
<path d="M0 0 C0.33 0.66 0.66 1.32 1 2 C0 5 0 5 -2.4375 6.75 C-3.7059375 7.36875 -3.7059375 7.36875 -5 8 C-5.66 7.67 -6.32 7.34 -7 7 C-4.69 4.69 -2.38 2.38 0 0 Z " fill="#6D6F61" transform="translate(170,269)"/>
<path d="M0 0 C1.32 0.33 2.64 0.66 4 1 C3.01 2.485 3.01 2.485 2 4 C-0.625 4.1875 -0.625 4.1875 -3 4 C-2.01 2.68 -1.02 1.36 0 0 Z " fill="#383D33" transform="translate(174,265)"/>
<path d="M0 0 C-1.29299694 2.88437779 -2.65941363 4.87219421 -5 7 C-5.33 5.35 -5.66 3.7 -6 2 C-3 0 -3 0 0 0 Z " fill="#C8A67E" transform="translate(358,233)"/>
<path d="M0 0 C0.66 0.33 1.32 0.66 2 1 C-0.31 2.65 -2.62 4.3 -5 6 C-5.33 5.01 -5.66 4.02 -6 3 C-4 2 -2 1 0 0 Z " fill="#70746C" transform="translate(325,215)"/>
<path d="M0 0 C0.6875 1.8125 0.6875 1.8125 1 4 C-0.25 5.75 -0.25 5.75 -2 7 C-2.99 7 -3.98 7 -5 7 C-3.70700306 4.11562221 -2.34058637 2.12780579 0 0 Z " fill="#6B6E5F" transform="translate(248,177)"/>
<path d="M0 0 C0 2 0 2 -1.875 4.125 C-4 6 -4 6 -6 6 C-5.625 3.5625 -5.625 3.5625 -5 1 C-3 0 -3 0 0 0 Z " fill="#2B3426" transform="translate(192,173)"/>
<path d="M0 0 C1.32 0 2.64 0 4 0 C2.86695008 3.39914975 1.87481525 4.05254451 -1 6 C-1 2 -1 2 0 0 Z " fill="#44473D" transform="translate(229,111)"/>
<path d="M0 0 C1 3 1 3 -0.4375 6.1875 C-1.2109375 7.5796875 -1.2109375 7.5796875 -2 9 C-2.66 8.67 -3.32 8.34 -4 8 C-3.67 6.68 -3.34 5.36 -3 4 C-2.34 4 -1.68 4 -1 4 C-0.67 2.68 -0.34 1.36 0 0 Z " fill="#10140C" transform="translate(310,323)"/>
<path d="M0 0 C-1.75 4.875 -1.75 4.875 -4 6 C-4.33 4.35 -4.66 2.7 -5 1 C-2 0 -2 0 0 0 Z " fill="#C4AB8D" transform="translate(320,276)"/>
<path d="M0 0 C2.625 -0.1875 2.625 -0.1875 5 0 C4.34 1.32 3.68 2.64 3 4 C2.67 3.34 2.34 2.68 2 2 C0.68 2.33 -0.64 2.66 -2 3 C-1.34 2.01 -0.68 1.02 0 0 Z " fill="#343D35" transform="translate(325,211)"/>
<path d="M0 0 C0 0.33 0 0.66 0 1 C-1.65 1 -3.3 1 -5 1 C-5 1.66 -5 2.32 -5 3 C-7.97 2.505 -7.97 2.505 -11 2 C-7.36576791 -0.32590854 -4.22911669 -0.16265833 0 0 Z " fill="#5D6158" transform="translate(405,50)"/>
</svg>